<?xml version="1.0" encoding="UTF-8"?>
<svg xmlns="http://www.w3.org/2000/svg" xmlns:xlink="http://www.w3.org/1999/xlink" width="50px" height="47px" viewBox="0 0 50 47" version="1.1">
<g id="surface1">
<rect x="0" y="0" width="50" height="47" style="fill:rgb(0.392157%,0.392157%,0.392157%);fill-opacity:1;stroke:none;"/>
<path style=" stroke:none;fill-rule:nonzero;fill:rgb(72.941176%,32.156863%,60.392157%);fill-opacity:1;" d="M 38.179688 24.664062 C 34.699219 21.328125 30.789062 18.359375 27.132812 15.21875 L 24.804688 13.21875 C 24.53125 12.984375 24.128906 12.472656 23.753906 12.421875 C 23.433594 12.378906 23.457031 12.808594 23.449219 13.011719 L 23.546875 13.011719 L 23.546875 12.429688 L 26.164062 14.46875 C 26.148438 15.152344 25.980469 16.539062 25.195312 16.800781 L 23.546875 20.101562 L 23.449219 20.101562 L 23.351562 19.710938 L 23.546875 19.808594 L 23.546875 19.710938 L 23.253906 19.710938 C 22.925781 19.164062 22.425781 18.949219 21.800781 18.9375 L 21.800781 19.03125 C 23.308594 19.113281 23.8125 20.785156 23.066406 21.945312 C 22.417969 22.953125 21.546875 23.113281 20.445312 23.113281 L 20.445312 23.207031 L 21.707031 23.207031 L 21.707031 23.304688 L 21.609375 23.597656 L 21.414062 23.402344 L 21.316406 23.402344 L 21.414062 23.792969 L 20.738281 25.054688 L 20.445312 24.957031 L 20.347656 25.832031 L 20.058594 25.832031 C 19.96875 26.390625 19.496094 27.21875 18.992188 27.480469 L 18.21875 29.617188 L 17.539062 29.8125 L 17.539062 30.199219 L 16.957031 30.296875 C 16.152344 31.175781 13.964844 31.988281 14.339844 33.503906 C 13.707031 33.03125 13.476562 32.429688 13.46875 31.65625 L 13.371094 31.65625 C 13.371094 32.515625 13.601562 33.433594 14.535156 33.695312 C 14.09375 31.859375 18 29.183594 19.671875 30.1875 C 21.609375 31.351562 20 33.773438 18.3125 33.988281 C 18.679688 35.152344 20.539062 34.621094 21.414062 34.671875 C 22.296875 34.722656 22.871094 35.394531 23.269531 36.125 C 23.707031 36.929688 23.546875 37.953125 23.546875 38.84375 C 23.546875 40.101562 23.664062 41.382812 23.636719 42.628906 C 23.621094 43.453125 23.449219 44.238281 23.644531 45.058594 C 24.546875 44.8125 25.339844 43.851562 26.066406 43.277344 C 27.917969 41.8125 29.773438 40.34375 31.589844 38.835938 C 32.273438 38.265625 33.675781 37.523438 34.023438 36.691406 C 34.21875 36.214844 34.074219 35.460938 34.027344 34.957031 C 33.949219 34.09375 34.011719 33.203125 34.011719 32.335938 L 37.886719 35.347656 L 37.015625 34.277344 L 36.726562 34.277344 L 36.726562 34.183594 L 37.113281 34.183594 L 37.210938 33.792969 L 37.113281 33.503906 L 37.789062 32.726562 L 37.695312 32.335938 L 37.789062 32.238281 L 38.082031 32.335938 L 38.664062 30.878906 C 39.285156 30.769531 39.332031 30.027344 39.632812 29.5625 C 40.503906 28.222656 41.171875 26.785156 42.054688 25.441406 L 42.152344 24.664062 L 42.34375 24.859375 L 42.539062 24.082031 L 42.636719 24.082031 L 42.734375 24.375 L 43.992188 21.558594 L 44.28125 21.265625 L 44.476562 21.558594 L 45.15625 19.617188 L 45.738281 19.226562 C 45.753906 18.714844 46.039062 18.300781 46.414062 17.964844 L 46.316406 17.671875 C 47.339844 17.128906 47.578125 15.90625 47.578125 14.859375 L 47.675781 14.859375 L 47.675781 17.867188 C 47.898438 17.335938 47.769531 16.59375 47.769531 16.023438 C 47.769531 14.699219 47.734375 13.367188 47.773438 12.042969 C 47.785156 11.746094 48.023438 10.347656 47.644531 10.285156 C 47.058594 10.191406 45.765625 11.75 45.347656 12.132812 C 43.773438 13.5625 42.179688 14.96875 40.601562 16.394531 C 39.929688 17 39.066406 17.558594 38.5 18.265625 C 38.125 18.734375 38.273438 19.535156 38.273438 20.101562 C 38.273438 21.554688 38.515625 23.25 38.179688 24.664062 Z M 38.179688 24.664062 "/>
<path style=" stroke:none;fill-rule:nonzero;fill:rgb(95.294118%,56.470588%,20.784314%);fill-opacity:1;" d="M 23.546875 12.429688 C 23.445312 14.761719 20.972656 16.367188 18.796875 16.207031 C 18.007812 16.148438 17.277344 15.761719 16.570312 15.441406 L 16.570312 15.828125 L 16.277344 15.632812 C 16.882812 17.023438 18.484375 18.339844 19.960938 18.691406 C 20.710938 18.871094 21.570312 18.777344 22.285156 19 C 22.765625 19.148438 23.066406 19.582031 23.546875 19.710938 L 23.546875 19.808594 L 23.351562 19.710938 L 23.351562 19.808594 L 23.449219 20.101562 L 23.546875 20.101562 C 24.015625 19.066406 25.15625 17.949219 25.195312 16.800781 C 26.03125 16.628906 26.210938 15.140625 26.164062 14.46875 Z M 23.546875 12.429688 "/>
<path style=" stroke:none;fill-rule:nonzero;fill:rgb(72.941176%,32.156863%,60.392157%);fill-opacity:1;" d="M 23.351562 13.109375 L 23.351562 13.402344 L 23.449219 13.402344 L 23.351562 13.109375 M 23.289062 13.464844 L 23.320312 13.53125 L 23.289062 13.464844 M 23.160156 13.691406 L 23.253906 13.789062 L 23.160156 13.691406 M 23.0625 13.886719 L 23.160156 13.984375 L 23.0625 13.886719 M 22.996094 14.046875 L 23.03125 14.113281 L 22.996094 14.046875 M 22.867188 14.175781 L 22.964844 14.273438 L 22.867188 14.175781 M 22.769531 14.371094 L 22.867188 14.46875 L 22.769531 14.371094 M 22.675781 14.46875 L 22.769531 14.566406 L 22.675781 14.46875 M 22.578125 14.566406 L 22.675781 14.664062 Z M 22.578125 14.566406 "/>
<path style=" stroke:none;fill-rule:nonzero;fill:rgb(95.294118%,56.470588%,20.784314%);fill-opacity:1;" d="M 26.164062 14.664062 L 26.648438 15.050781 L 26.550781 15.34375 L 26.9375 15.34375 Z M 26.164062 14.664062 "/>
<path style=" stroke:none;fill-rule:nonzero;fill:rgb(36.862745%,62.745098%,79.215686%);fill-opacity:1;" d="M 47.578125 14.859375 C 47.578125 15.988281 47.222656 16.945312 46.316406 17.671875 L 46.414062 17.964844 C 45.964844 18.230469 45.722656 18.710938 45.738281 19.226562 L 45.15625 19.617188 L 44.476562 21.558594 L 44.28125 21.265625 L 43.992188 21.558594 L 42.734375 24.375 L 42.636719 24.082031 L 42.539062 24.082031 L 42.34375 24.859375 L 42.152344 24.664062 L 42.054688 25.441406 C 40.992188 26.582031 40.402344 28.246094 39.578125 29.5625 C 39.289062 30.019531 39.25 30.699219 38.664062 30.878906 L 38.082031 32.335938 L 37.789062 32.238281 L 37.695312 32.335938 L 37.789062 32.726562 L 37.113281 33.503906 L 37.210938 33.792969 L 37.113281 34.183594 L 36.726562 34.183594 L 36.726562 34.277344 L 37.015625 34.277344 C 37.175781 35.179688 38.75 36.039062 39.4375 36.589844 C 41.207031 38 43.019531 39.359375 44.765625 40.792969 C 45.601562 41.480469 46.707031 42.667969 47.769531 42.921875 L 47.769531 23.402344 L 47.679688 17.382812 Z M 47.578125 14.859375 "/>
<path style=" stroke:none;fill-rule:nonzero;fill:rgb(78.431373%,65.882353%,53.72549%);fill-opacity:1;" d="M 16.375 15.34375 L 16.570312 15.828125 Z M 16.375 15.34375 "/>
<path style=" stroke:none;fill-rule:nonzero;fill:rgb(95.294118%,56.470588%,20.784314%);fill-opacity:1;" d="M 27.324219 15.632812 L 27.421875 15.730469 Z M 27.324219 15.632812 "/>
<path style=" stroke:none;fill-rule:nonzero;fill:rgb(78.431373%,65.882353%,53.72549%);fill-opacity:1;" d="M 16.828125 15.765625 L 16.894531 15.796875 L 16.828125 15.765625 M 17.054688 15.828125 L 17.152344 15.925781 L 17.054688 15.828125 M 7.558594 16.3125 C 7.585938 16.699219 7.667969 16.878906 8.042969 16.992188 L 7.75 16.3125 Z M 7.558594 16.3125 "/>
<path style=" stroke:none;fill-rule:nonzero;fill:rgb(36.862745%,62.745098%,79.215686%);fill-opacity:1;" d="M 47.191406 16.410156 L 47.285156 16.507812 Z M 47.191406 16.410156 "/>
<path style=" stroke:none;fill-rule:nonzero;fill:rgb(78.431373%,65.882353%,53.72549%);fill-opacity:1;" d="M 17.152344 16.605469 L 17.25 16.703125 Z M 17.152344 16.605469 "/>
<path style=" stroke:none;fill-rule:nonzero;fill:rgb(95.294118%,56.470588%,20.784314%);fill-opacity:1;" d="M 7.945312 16.703125 L 8.042969 16.800781 L 7.945312 16.703125 M 8.042969 16.800781 L 7.65625 16.898438 C 7.71875 17.320312 7.828125 17.761719 7.992188 18.160156 C 9.238281 21.214844 11.953125 18.566406 14.050781 19.226562 L 13.855469 18.742188 L 14.246094 18.9375 C 13.371094 17.726562 11.839844 18.171875 10.5625 18.046875 C 9.519531 17.941406 8.800781 17.492188 8.042969 16.800781 Z M 8.042969 16.800781 "/>
<path style=" stroke:none;fill-rule:nonzero;fill:rgb(78.431373%,65.882353%,53.72549%);fill-opacity:1;" d="M 8.429688 17.382812 L 8.527344 17.480469 Z M 8.429688 17.382812 "/>
<path style=" stroke:none;fill-rule:nonzero;fill:rgb(36.862745%,62.745098%,79.215686%);fill-opacity:1;" d="M 46.222656 17.578125 L 46.316406 17.671875 Z M 46.222656 17.578125 "/>
<path style=" stroke:none;fill-rule:nonzero;fill:rgb(78.431373%,65.882353%,53.72549%);fill-opacity:1;" d="M 8.042969 17.867188 L 8.140625 17.964844 Z M 8.042969 17.867188 "/>
<path style=" stroke:none;fill-rule:nonzero;fill:rgb(72.941176%,32.156863%,60.392157%);fill-opacity:1;" d="M 19.863281 18.644531 L 19.960938 18.742188 Z M 19.863281 18.644531 "/>
<path style=" stroke:none;fill-rule:nonzero;fill:rgb(78.431373%,65.882353%,53.72549%);fill-opacity:1;" d="M 13.855469 18.742188 L 14.246094 19.324219 Z M 13.855469 18.742188 "/>
<path style=" stroke:none;fill-rule:nonzero;fill:rgb(72.941176%,32.156863%,60.392157%);fill-opacity:1;" d="M 20.25 18.742188 L 20.25 18.839844 L 20.542969 18.839844 L 20.25 18.742188 M 20.542969 18.839844 L 20.542969 18.9375 L 21.027344 18.9375 Z M 20.542969 18.839844 "/>
<path style=" stroke:none;fill-rule:nonzero;fill:rgb(78.431373%,65.882353%,53.72549%);fill-opacity:1;" d="M 8.722656 19.03125 L 8.816406 19.128906 L 8.722656 19.03125 M 12.304688 19.03125 L 12.402344 19.128906 L 12.304688 19.03125 M 11.984375 19.164062 L 12.046875 19.195312 L 11.984375 19.164062 M 11.628906 19.226562 L 11.726562 19.324219 L 11.628906 19.226562 M 10.949219 19.421875 L 10.949219 19.519531 L 11.433594 19.421875 L 10.949219 19.421875 M 9.300781 19.421875 L 9.398438 19.519531 L 9.300781 19.421875 M 9.65625 19.550781 L 9.722656 19.582031 L 9.65625 19.550781 M 10.53125 19.550781 L 10.59375 19.582031 Z M 10.53125 19.550781 "/>
<path style=" stroke:none;fill-rule:nonzero;fill:rgb(72.941176%,32.156863%,60.392157%);fill-opacity:1;" d="M 47.769531 19.710938 L 47.769531 20.003906 L 47.867188 20.003906 Z M 47.769531 19.710938 "/>
<path style=" stroke:none;fill-rule:nonzero;fill:rgb(95.294118%,56.470588%,20.784314%);fill-opacity:1;" d="M 23.546875 20.296875 L 23.546875 20.585938 L 23.644531 20.585938 L 23.546875 20.296875 M 11.917969 21.074219 L 12.113281 21.363281 L 11.820312 21.167969 L 11.726562 21.167969 C 12.335938 22.246094 14.175781 22.171875 14.785156 23.5 C 15.402344 24.847656 13.539062 25.035156 12.695312 24.753906 C 11.539062 24.367188 10.769531 23.40625 9.691406 22.90625 C 7.441406 21.871094 4.097656 22.265625 2.617188 24.375 L 3.003906 24.082031 L 2.714844 24.761719 C 4.394531 23.667969 6.328125 24.140625 7.945312 25.195312 C 8.476562 25.539062 9.632812 26.425781 9.28125 27.1875 C 8.941406 27.925781 7.933594 27.933594 7.265625 28.160156 C 8.117188 29.839844 10.894531 29.898438 12.402344 29.320312 C 12.941406 29.113281 14.144531 28.1875 14.695312 28.699219 C 15.148438 29.113281 14.441406 29.773438 14.195312 30.101562 C 13.484375 31.066406 12.976562 32.832031 14.339844 33.503906 C 14.097656 31.863281 16.289062 31.402344 16.957031 30.296875 L 17.539062 30.199219 L 17.539062 29.8125 L 17.828125 29.910156 L 18.21875 29.617188 L 18.992188 27.480469 C 19.546875 27.308594 20.015625 26.394531 20.058594 25.832031 L 20.347656 25.832031 L 20.445312 24.957031 L 20.738281 25.054688 L 21.414062 23.792969 L 21.316406 23.402344 L 21.414062 23.402344 L 21.609375 23.597656 L 21.707031 23.304688 C 21.1875 23.117188 20.605469 23.21875 20.058594 22.988281 C 17.488281 21.910156 14.820312 20.003906 11.917969 21.074219 M 23.546875 20.78125 L 23.546875 21.167969 L 23.644531 21.167969 Z M 23.546875 20.78125 "/>
<path style=" stroke:none;fill-rule:nonzero;fill:rgb(78.431373%,65.882353%,53.72549%);fill-opacity:1;" d="M 14.050781 20.878906 L 14.148438 20.976562 L 14.050781 20.878906 M 12.273438 21.105469 L 12.339844 21.136719 L 12.273438 21.105469 M 11.820312 21.167969 L 11.820312 21.363281 L 12.113281 21.363281 L 12.113281 21.167969 L 11.820312 21.167969 M 15.890625 21.265625 L 15.988281 21.363281 L 15.890625 21.265625 M 12.113281 21.363281 L 12.210938 21.460938 L 12.113281 21.363281 M 12.402344 21.460938 L 12.5 21.558594 L 12.402344 21.460938 M 6.265625 22.5625 L 6.332031 22.59375 L 6.265625 22.5625 M 7.363281 22.527344 L 7.363281 22.625 L 7.847656 22.625 Z M 7.363281 22.527344 "/>
<path style=" stroke:none;fill-rule:nonzero;fill:rgb(95.294118%,56.470588%,20.784314%);fill-opacity:1;" d="M 22.769531 22.527344 L 22.867188 22.625 Z M 22.769531 22.527344 "/>
<path style=" stroke:none;fill-rule:nonzero;fill:rgb(78.431373%,65.882353%,53.72549%);fill-opacity:1;" d="M 5.621094 22.625 L 5.71875 22.722656 L 5.621094 22.625 M 8.722656 22.722656 L 8.816406 22.820312 L 8.722656 22.722656 M 9.078125 22.851562 L 9.140625 22.886719 L 9.078125 22.851562 M 9.300781 22.917969 L 9.300781 23.015625 L 9.882812 23.207031 L 9.882812 23.113281 Z M 9.300781 22.917969 "/>
<path style=" stroke:none;fill-rule:nonzero;fill:rgb(95.294118%,56.470588%,20.784314%);fill-opacity:1;" d="M 22.285156 22.917969 L 22.382812 23.015625 Z M 22.285156 22.917969 "/>
<path style=" stroke:none;fill-rule:nonzero;fill:rgb(72.941176%,32.156863%,60.392157%);fill-opacity:1;" d="M 20.21875 23.046875 L 20.285156 23.078125 Z M 20.21875 23.046875 "/>
<path style=" stroke:none;fill-rule:nonzero;fill:rgb(95.294118%,56.470588%,20.784314%);fill-opacity:1;" d="M 22.09375 23.015625 L 22.191406 23.113281 Z M 22.09375 23.015625 "/>
<path style=" stroke:none;fill-rule:nonzero;fill:rgb(78.431373%,65.882353%,53.72549%);fill-opacity:1;" d="M 4.167969 23.113281 L 4.261719 23.207031 Z M 4.167969 23.113281 "/>
<path style=" stroke:none;fill-rule:nonzero;fill:rgb(95.294118%,56.470588%,20.784314%);fill-opacity:1;" d="M 21.867188 23.144531 L 21.929688 23.175781 Z M 21.867188 23.144531 "/>
<path style=" stroke:none;fill-rule:nonzero;fill:rgb(78.431373%,65.882353%,53.72549%);fill-opacity:1;" d="M 10.175781 23.304688 L 10.175781 23.5 L 10.367188 23.5 L 10.175781 23.304688 M 3.683594 23.402344 L 3.777344 23.5 L 3.683594 23.402344 M 3.292969 23.695312 L 3.101562 23.984375 L 3.292969 23.695312 M 10.851562 23.886719 L 11.046875 24.082031 L 10.851562 23.886719 M 5.585938 24.019531 L 5.652344 24.050781 L 5.585938 24.019531 M 2.90625 24.082031 L 2.132812 25.34375 C 2.5 25.078125 3.136719 24.578125 2.90625 24.082031 M 3.101562 24.179688 L 3.199219 24.277344 L 3.101562 24.179688 M 11.726562 24.472656 L 11.820312 24.566406 L 11.726562 24.472656 M 12.015625 24.664062 L 12.113281 24.761719 L 12.015625 24.664062 M 12.597656 24.859375 L 12.695312 24.957031 Z M 12.597656 24.859375 "/>
<path style=" stroke:none;fill-rule:nonzero;fill:rgb(72.941176%,32.156863%,60.392157%);fill-opacity:1;" d="M 2.324219 25.152344 L 2.421875 25.246094 L 2.324219 25.152344 M 2.230469 25.246094 L 2.324219 25.34375 L 2.230469 25.246094 M 2.132812 25.34375 L 2.230469 25.441406 Z M 2.132812 25.34375 "/>
<path style=" stroke:none;fill-rule:nonzero;fill:rgb(95.294118%,56.470588%,20.784314%);fill-opacity:1;" d="M 2.324219 27.96875 L 2.324219 28.0625 L 2.90625 28.0625 L 2.90625 28.160156 L 2.519531 28.160156 L 2.519531 28.257812 L 2.90625 28.355469 L 2.90625 28.453125 L 2.230469 28.257812 L 2.230469 28.355469 L 4.652344 28.675781 L 6.203125 29.230469 L 6.203125 28.9375 L 6.394531 29.230469 C 6.761719 27.015625 3.363281 27.886719 2.324219 27.96875 Z M 2.324219 27.96875 "/>
<path style=" stroke:none;fill-rule:nonzero;fill:rgb(78.431373%,65.882353%,53.72549%);fill-opacity:1;" d="M 5.007812 27.804688 L 5.070312 27.835938 L 5.007812 27.804688 M 1.9375 27.871094 L 2.90625 28.453125 L 2.90625 28.355469 L 2.519531 28.257812 L 2.519531 28.160156 L 2.90625 28.160156 L 2.90625 28.0625 L 1.9375 27.871094 M 3.648438 27.902344 L 3.714844 27.933594 L 3.648438 27.902344 M 5.234375 27.871094 L 5.328125 27.96875 L 5.234375 27.871094 M 5.621094 28.0625 L 6.105469 28.839844 L 6.203125 28.839844 Z M 5.621094 28.0625 "/>
<path style=" stroke:none;fill-rule:nonzero;fill:rgb(95.294118%,56.470588%,20.784314%);fill-opacity:1;" d="M 2.035156 28.160156 L 2.132812 28.257812 Z M 2.035156 28.160156 "/>
<path style=" stroke:none;fill-rule:nonzero;fill:rgb(78.431373%,65.882353%,53.72549%);fill-opacity:1;" d="M 7.363281 28.160156 L 7.75 28.550781 L 7.847656 28.257812 L 7.363281 28.160156 M 4.75 28.453125 L 4.84375 28.550781 Z M 4.75 28.453125 "/>
<path style=" stroke:none;fill-rule:nonzero;fill:rgb(72.941176%,32.156863%,60.392157%);fill-opacity:1;" d="M 14.40625 28.484375 L 14.46875 28.515625 L 14.40625 28.484375 M 3.390625 28.550781 L 3.488281 28.648438 L 3.390625 28.550781 M 13.953125 28.550781 L 14.050781 28.648438 L 13.953125 28.550781 M 14.632812 28.550781 L 14.730469 28.648438 L 14.632812 28.550781 M 13.664062 28.648438 L 13.757812 28.742188 L 13.664062 28.648438 M 14.824219 28.742188 L 14.824219 29.230469 L 14.921875 29.230469 Z M 14.824219 28.742188 "/>
<path style=" stroke:none;fill-rule:nonzero;fill:rgb(78.431373%,65.882353%,53.72549%);fill-opacity:1;" d="M 6.203125 28.9375 L 6.589844 29.519531 L 6.203125 28.9375 M 9.300781 29.328125 L 9.398438 29.421875 Z M 9.300781 29.328125 "/>
<path style=" stroke:none;fill-rule:nonzero;fill:rgb(72.941176%,32.156863%,60.392157%);fill-opacity:1;" d="M 14.535156 29.617188 L 14.632812 29.714844 Z M 14.535156 29.617188 "/>
<path style=" stroke:none;fill-rule:nonzero;fill:rgb(95.294118%,56.470588%,20.784314%);fill-opacity:1;" d="M 17.992188 29.746094 L 18.054688 29.78125 L 17.992188 29.746094 M 18.507812 29.8125 L 18.605469 29.910156 L 18.507812 29.8125 M 18.023438 29.910156 L 18.121094 30.007812 L 18.023438 29.910156 M 17.734375 30.007812 L 17.828125 30.101562 Z M 17.734375 30.007812 "/>
<path style=" stroke:none;fill-rule:nonzero;fill:rgb(72.941176%,32.156863%,60.392157%);fill-opacity:1;" d="M 13.757812 30.6875 L 13.855469 30.78125 L 13.757812 30.6875 M 13.664062 30.878906 L 13.757812 30.976562 L 13.664062 30.878906 M 13.566406 31.074219 L 13.664062 31.171875 L 13.566406 31.074219 M 13.46875 31.269531 L 13.46875 31.558594 L 13.566406 31.558594 Z M 13.46875 31.269531 "/>
<path style=" stroke:none;fill-rule:nonzero;fill:rgb(36.862745%,62.745098%,79.215686%);fill-opacity:1;" d="M 36.335938 33.890625 L 36.628906 34.183594 L 36.628906 33.890625 L 36.335938 33.890625 M 36.726562 33.988281 L 36.820312 34.085938 Z M 36.726562 33.988281 "/>
<path style=" stroke:none;fill-rule:nonzero;fill:rgb(95.294118%,56.470588%,20.784314%);fill-opacity:1;" d="M 18.507812 34.085938 L 18.605469 34.183594 Z M 18.507812 34.085938 "/>
<path style=" stroke:none;fill-rule:nonzero;fill:rgb(78.431373%,65.882353%,53.72549%);fill-opacity:1;" d="M 47.578125 42.726562 L 47.675781 42.824219 Z M 47.578125 42.726562 "/>
</g>
</svg>
